<svg width="32" height="32" viewBox="0 0 32 32" fill="none" xmlns="http://www.w3.org/2000/svg">
  <!-- Chef hat icon -->
  <path d="M16 4C12 4 8 6 8 10V12C8 14 9 16 11 17L12 18V26C12 27.1 12.9 28 14 28H18C19.1 28 20 27.1 20 26V18L21 17C23 16 24 14 24 12V10C24 6 20 4 16 4Z" fill="#F97316"/>
  <!-- Hat band -->
  <path d="M8 12H24V14H8V12Z" fill="#EA580C"/>
  <!-- Hat top -->
  <path d="M14 6C14 5.4 14.4 5 15 5H17C17.6 5 18 5.4 18 6V8H14V6Z" fill="#F97316"/>
  <!-- Small details -->
  <circle cx="12" cy="20" r="1" fill="#EA580C"/>
  <circle cx="20" cy="20" r="1" fill="#EA580C"/>
</svg>
